<?xml version="1.0" encoding="iso-8859-1"?>
<!-- Generator: Adobe Illustrator 19.2.0, SVG Export Plug-In . SVG Version: 6.00 Build 0)  -->
<svg version="1.1" id="Layer_1" xmlns="http://www.w3.org/2000/svg" xmlns:xlink="http://www.w3.org/1999/xlink" x="0px" y="0px"
	 viewBox="0 0 307.972 45.283" style="enable-background:new 0 0 307.972 45.283;" xml:space="preserve">
<g>
	<path style="fill:#1D1D1B;" d="M140.905,15.533h-5.018v14.379H121.02V15.533h-5.018v14.379h-15.029V15.533h-5.018v14.379H75.751
		V15.533h-5.018v14.379H55.866V15.533h-5.018v14.379H14.93c-5.466,0-9.912-4.526-9.912-10.09s4.446-10.09,9.912-10.09V4.714
		C6.697,4.714,0,11.492,0,19.822c0,8.291,6.636,15.039,14.816,15.102v0.006h0.115h125.994v-5.018h-0.017V15.533H140.905z"/>
	<path style="fill:#1D1D1B;" d="M73.565,10.326c1.681,0,3.049-1.392,3.049-3.103s-1.368-3.104-3.049-3.104s-3.049,1.392-3.049,3.104
		C70.516,8.934,71.884,10.326,73.565,10.326z"/>
	<path style="fill:#1D1D1B;" d="M40.295,10.326c1.681,0,3.049-1.392,3.049-3.103s-1.368-3.104-3.049-3.104s-3.049,1.392-3.049,3.104
		C37.246,8.934,38.614,10.326,40.295,10.326z"/>
	<path style="fill:#1D1D1B;" d="M29.948,10.326c1.681,0,3.049-1.392,3.049-3.103s-1.368-3.104-3.049-3.104s-3.049,1.392-3.049,3.104
		C26.899,8.934,28.267,10.326,29.948,10.326z"/>
	<path style="fill:#1D1D1B;" d="M181.765,10.326c1.681,0,3.049-1.392,3.049-3.103s-1.368-3.104-3.049-3.104
		c-1.682,0-3.05,1.392-3.05,3.104C178.716,8.934,180.084,10.326,181.765,10.326z"/>
	<path style="fill:#1D1D1B;" d="M301.027,6.207c1.681,0,3.049-1.392,3.049-3.103S302.708,0,301.027,0s-3.049,1.392-3.049,3.104
		S299.346,6.207,301.027,6.207z"/>
	<path style="fill:#1D1D1B;" d="M290.679,6.207c1.681,0,3.049-1.392,3.049-3.103S292.36,0,290.679,0s-3.049,1.392-3.049,3.104
		S288.998,6.207,290.679,6.207z"/>
	<path style="fill:#1D1D1B;" d="M194.556,29.912h-19.127c-4.701,0-8.524-3.895-8.524-8.683c0-2.147,0.774-4.207,2.181-5.801
		l-3.763-3.32c-2.216,2.511-3.436,5.751-3.436,9.121c0,7.555,6.076,13.701,13.543,13.701h24.118v-0.461h0.027V15.532h-5.018v14.38
		H194.556z"/>
	<path style="fill:#1D1D1B;" d="M295.853,10.329c-6.682,0-12.119,5.499-12.119,12.257c0,2.748,0.91,5.279,2.426,7.326h-10.577
		c1.516-2.047,2.426-4.578,2.426-7.326c0-6.759-5.436-12.257-12.119-12.257c-6.682,0-12.119,5.499-12.119,12.257
		c0,6.626,5.23,12.028,11.733,12.237l0.231-0.28v0.292c-0.078-0.001-0.154-0.01-0.231-0.012l-8.342,10.46h6.511l8.254-10.353h23.6
		v-0.104c0.109,0.003,0.216,0.017,0.326,0.017c6.682,0,12.119-5.499,12.119-12.257C307.972,15.827,302.536,10.329,295.853,10.329z
		 M265.891,29.824c-3.915,0-7.1-3.247-7.1-7.238s3.185-7.239,7.1-7.239s7.101,3.248,7.101,7.239
		C272.991,26.577,269.806,29.824,265.891,29.824z M295.853,29.824c-3.915,0-7.1-3.247-7.1-7.238s3.185-7.239,7.1-7.239
		s7.1,3.248,7.1,7.239C302.954,26.577,299.768,29.824,295.853,29.824z"/>
	<path style="fill:#1D1D1B;" d="M241.831,29.912h-14.686c-0.019-9.356-6.636-17.17-15.38-18.926v5.184
		c5.949,1.662,10.343,7.176,10.361,13.742h-15.352v5.018h35.057v0.017h5.018V0h-5.018L241.831,29.912L241.831,29.912z"/>
</g>
</svg>
