
<svg width="75px" height="40px" viewBox="0 0 82 47" version="1.1" xmlns="http://www.w3.org/2000/svg" xmlns:xlink="http://www.w3.org/1999/xlink">
    <!-- Generator: Sketch 44.1 (41455) - http://www.bohemiancoding.com/sketch -->
    <desc>Created with Sketch.</desc>
    <defs></defs>
    <g id="Page-1" stroke="none" stroke-width="1" fill="none" fill-rule="evenodd">
        <g id="Artboard" transform="translate(-296.000000, -597.000000)">
            <g id="Group-2" transform="translate(296.000000, 597.000000)">
                <g id="Group">
                    <rect id="Rectangle-2" fill="#E3E3E3" x="0" y="0" width="80" height="47" rx="3"></rect>
                    <rect id="Rectangle-3" fill="#000000" x="0" y="4.58536585" width="80" height="10.3170732"></rect>
                    <rect id="Rectangle-3-Copy" fill="#FFFFFF" x="6.95652174" y="18.3414634" width="67.2463768" height="8.02439024"></rect>
                    <path d="M63.0890929,21.4634056 L63.0890929,23.9470576 L63.9607639,23.9470576 L63.9607639,20.762042 L62.6086957,20.762042 L62.6086957,21.4634056 L63.0890929,21.4634056 Z M67.2126838,23.2456941 L67.7322084,22.7856821 C67.9075579,22.641283 68.0430532,22.4906976 68.1386984,22.3339215 C68.2299961,22.1785205 68.2756442,21.9894293 68.2756442,21.7666422 C68.2698475,21.4173339 68.1423226,21.1416045 67.8930654,20.9394458 C67.6467066,20.7400375 67.3423856,20.638272 66.9800933,20.6341463 C66.5801225,20.638272 66.2671066,20.7496639 66.0410362,20.9683254 C65.8120674,21.1883621 65.6888899,21.4854073 65.6714998,21.8594697 L66.6344681,21.8594697 C66.6243239,21.8127119 66.6192519,21.7680176 66.6192519,21.7253855 C66.6192519,21.6126167 66.6518577,21.5197901 66.7170703,21.4469029 C66.7793846,21.375391 66.8685072,21.3382603 66.9844408,21.3355099 C67.1032726,21.3382603 67.1967427,21.3808918 67.2648536,21.4634056 C67.3329646,21.5472946 67.3670196,21.6428716 67.3670196,21.7501395 C67.3641212,21.8945386 67.3257188,22.0354975 67.2518112,22.1730204 C67.1779035,22.3077929 67.0887809,22.4274361 66.9844408,22.5319535 L65.6149825,23.9470576 L68.3125979,23.9470576 L68.3125979,23.2456941 L67.2126838,23.2456941 Z M70.1776695,21.6779403 C70.1805679,21.5706724 70.2131737,21.4819714 70.275488,21.4118347 C70.3349039,21.3471989 70.4211282,21.3135063 70.5341634,21.3107559 C70.6356053,21.3107559 70.7189313,21.3389476 70.7841439,21.395332 C70.8435598,21.4544669 70.8747165,21.5335414 70.8776149,21.6325579 C70.8747165,21.7425763 70.8392124,21.8271517 70.7711014,21.8862865 C70.7015413,21.9509223 70.6095204,21.9832397 70.4950361,21.9832397 L70.4059126,21.9832397 L70.4059126,22.5360792 C70.452286,22.5223269 70.5022816,22.5140756 70.5559009,22.5113252 C70.6834278,22.5140756 70.7921138,22.5546443 70.8819623,22.6330324 C70.9703617,22.7114205 71.0160098,22.8131859 71.0189082,22.9383318 C71.0160098,23.0648529 70.97326,23.167306 70.8906573,23.2456941 C70.8008088,23.3240821 70.6877753,23.3632756 70.5515534,23.3632756 C70.4124331,23.3632756 70.3015733,23.3185813 70.2189707,23.2291914 C70.1291222,23.1466776 70.0841986,23.0407865 70.0841986,22.911515 L69.1951376,22.911515 C69.1951376,23.0559141 69.23354,23.1996234 69.310346,23.3426473 C69.387152,23.4897968 69.4762746,23.6135656 69.5777164,23.7139574 C69.8559569,23.9601234 70.1899855,24.0797666 70.579812,24.0728905 C70.9261635,24.07014 71.2283108,23.9800638 71.486263,23.8026592 C71.7442151,23.6252546 71.8768121,23.3632773 71.884058,23.0167195 C71.884058,22.846191 71.8376852,22.6818536 71.7449384,22.5237022 C71.6507424,22.3683013 71.5145225,22.2651606 71.3362747,22.2142771 C71.4609032,22.1441404 71.551475,22.0499386 71.6079926,21.9316689 C71.6601627,21.8133991 71.6862473,21.6896303 71.6862473,21.5603588 C71.683349,21.2591835 71.5811841,21.0295236 71.3797495,20.8713722 C71.178315,20.7132209 70.923265,20.6341463 70.6145919,20.6341463 C70.2638929,20.6341463 69.9791354,20.7262853 69.7603108,20.9105661 C69.5400371,21.0907211 69.4088892,21.34651 69.3668633,21.6779403 L70.1776695,21.6779403 Z" id="123" fill="#404042"></path>
                </g>
                <circle id="Oval" stroke="#FD0E2B" stroke-width="2" cx="69" cy="22" r="12"></circle>
            </g>
        </g>
    </g>
</svg>